<?xml version="1.0" encoding="UTF-8" standalone="no"?>
<svg
   xmlns:dc="http://purl.org/dc/elements/1.1/"
   xmlns:cc="http://creativecommons.org/ns#"
   xmlns:rdf="http://www.w3.org/1999/02/22-rdf-syntax-ns#"
   xmlns:svg="http://www.w3.org/2000/svg"
   xmlns="http://www.w3.org/2000/svg"
   xmlns:sodipodi="http://sodipodi.sourceforge.net/DTD/sodipodi-0.dtd"
   xmlns:inkscape="http://www.inkscape.org/namespaces/inkscape"
   width="210mm"
   height="297mm"
   viewBox="0 0 210 297"
   version="1.1"
   id="svg1121"
   inkscape:version="1.0.1 (3bc2e813f5, 2020-09-07)"
   sodipodi:docname="Rainbow Infinity Loop In Circles.svg">
  <defs
     id="defs1115">
    <inkscape:path-effect
       effect="roughen"
       id="path-effect864"
       is_visible="false"
       lpeversion="1"
       method="size"
       max_segment_size="1"
       segments="2"
       displace_x="10;1"
       displace_y="10;1"
       global_randomize="1;1"
       handles="along"
       shift_nodes="true"
       fixed_displacement="true"
       spray_tool_friendly="true" />
  </defs>
  <sodipodi:namedview
     id="base"
     pagecolor="#ffffff"
     bordercolor="#666666"
     borderopacity="1.0"
     inkscape:pageopacity="0.0"
     inkscape:pageshadow="2"
     inkscape:zoom="0.49497475"
     inkscape:cx="378.66257"
     inkscape:cy="580.2592"
     inkscape:document-units="mm"
     inkscape:current-layer="layer1"
     inkscape:document-rotation="0"
     showgrid="false"
     showguides="true"
     inkscape:guide-bbox="true"
     inkscape:window-width="1920"
     inkscape:window-height="1137"
     inkscape:window-x="-8"
     inkscape:window-y="-8"
     inkscape:window-maximized="1" />
  <metadata
     id="metadata1118">
    <rdf:RDF>
      <cc:Work
         rdf:about="">
        <dc:format>image/svg+xml</dc:format>
        <dc:type
           rdf:resource="http://purl.org/dc/dcmitype/StillImage" />
        <dc:title></dc:title>
      </cc:Work>
    </rdf:RDF>
  </metadata>
  <g
     inkscape:label="שכבה 1"
     inkscape:groupmode="layer"
     id="layer1">
    <g
       id="g1859"
       transform="translate(1.0690781,2.1381562)">
      <g
         id="g857"
         style="opacity:0.997;fill:#ff0000;fill-opacity:1;stroke:none;stroke-width:1;stroke-miterlimit:4;stroke-dasharray:none;stroke-opacity:1"
         transform="matrix(0.69640086,-0.00203212,0.00203212,0.69640086,1.2597659,75.099431)">
        <path
           id="path835"
           style="opacity:0;fill:none;fill-opacity:1;stroke:#ff0000;stroke-width:3.77953;stroke-miterlimit:4;stroke-dasharray:none;stroke-opacity:1"
           d="m 304.44336,162.125 c -43.17294,0 -86.34533,16.47032 -119.28516,49.41016 -65.87968,65.87969 -65.87968,172.6926 0,238.57226 65.87966,65.8797 172.6926,65.87966 238.57227,0 32.93987,-32.93987 119.28515,-119.28711 119.28515,-119.28711 0,0 -86.34532,-86.34529 -119.28515,-119.28515 C 390.79062,178.59532 347.6163,162.125 304.44336,162.125 Z m 238.57226,168.69531 c 0,0 86.34529,86.34724 119.28516,119.28711 65.87966,65.87966 172.69261,65.8797 238.57227,0 65.87969,-65.87966 65.87969,-172.69257 0,-238.57226 -65.87966,-65.87967 -172.69257,-65.87967 -238.57227,0 -32.93983,32.93986 -119.28516,119.28515 -119.28516,119.28515 z"
           transform="scale(0.26458333)"
           sodipodi:nodetypes="sssscsscssssc"
           inkscape:path-effect="#path-effect864"
           inkscape:original-d="m 304.44336,162.125 c -43.17294,0 -86.34533,16.47032 -119.28516,49.41016 -65.87968,65.87969 -65.87968,172.6926 0,238.57226 65.87966,65.8797 172.6926,65.87966 238.57227,0 32.93987,-32.93987 119.28515,-119.28711 119.28515,-119.28711 0,0 -86.34532,-86.34529 -119.28515,-119.28515 C 390.79062,178.59532 347.6163,162.125 304.44336,162.125 Z m 238.57226,168.69531 c 0,0 86.34529,86.34724 119.28516,119.28711 65.87966,65.87966 172.69261,65.8797 238.57227,0 65.87969,-65.87966 65.87969,-172.69257 0,-238.57226 -65.87966,-65.87967 -172.69257,-65.87967 -238.57227,0 -32.93983,32.93986 -119.28516,119.28515 -119.28516,119.28515 z" />
      </g>
      <path
         id="path862"
         style="opacity:0.997;fill:#77c077;fill-opacity:1;stroke:none;stroke-width:0.217372;stroke-opacity:1"
         d="m 181.1379,140.72558 a 4.9373887,4.9373887 0 0 1 -4.92296,4.95178 4.9373887,4.9373887 0 0 1 -4.95177,-4.92297 4.9373887,4.9373887 0 0 1 4.92295,-4.95177 4.9373887,4.9373887 0 0 1 4.95178,4.92296 z" />
      <path
         id="path1112"
         style="opacity:0.997;fill:#2eb9a0;fill-opacity:1;stroke:none;stroke-width:0.217372;stroke-opacity:1"
         d="m 180.49744,128.2328 a 4.9373887,4.9373887 0 0 1 -4.92296,4.95178 4.9373887,4.9373887 0 0 1 -4.95177,-4.92296 4.9373887,4.9373887 0 0 1 4.92295,-4.95177 4.9373887,4.9373887 0 0 1 4.95178,4.92295 z" />
      <path
         id="path1130"
         style="opacity:0.997;fill:#19b5ad;fill-opacity:1;stroke:none;stroke-width:0.217372;stroke-opacity:1"
         d="m 175.25167,116.52203 a 4.9373887,4.9373887 0 0 1 -4.92296,4.95178 4.9373887,4.9373887 0 0 1 -4.95177,-4.92297 4.9373887,4.9373887 0 0 1 4.92296,-4.95177 4.9373887,4.9373887 0 0 1 4.95177,4.92296 z" />
      <path
         id="path1132"
         style="opacity:0.997;fill:#0eb5b9;fill-opacity:1;stroke:none;stroke-width:0.217372;stroke-opacity:1"
         d="m 164.99163,108.64151 a 4.9373887,4.9373887 0 0 1 -4.92297,4.95178 4.9373887,4.9373887 0 0 1 -4.95177,-4.92296 4.9373887,4.9373887 0 0 1 4.92296,-4.95177 4.9373887,4.9373887 0 0 1 4.95178,4.92295 z" />
      <path
         id="path1134"
         style="opacity:0.997;fill:#06b7d0;fill-opacity:1;stroke:none;stroke-width:0.217372;stroke-opacity:1"
         d="m 151.75377,105.98943 a 4.9373887,4.9373887 0 0 1 -4.92297,4.95177 4.9373887,4.9373887 0 0 1 -4.95177,-4.92296 4.9373887,4.9373887 0 0 1 4.92296,-4.95177 4.9373887,4.9373887 0 0 1 4.95178,4.92296 z" />
      <path
         id="path1136"
         style="opacity:0.997;fill:#04b7db;fill-opacity:1;stroke:none;stroke-width:0.217372;stroke-opacity:1"
         d="m 138.65705,108.56525 a 4.9373887,4.9373887 0 0 1 -4.92296,4.95178 4.9373887,4.9373887 0 0 1 -4.95178,-4.92297 4.9373887,4.9373887 0 0 1 4.92296,-4.95177 4.9373887,4.9373887 0 0 1 4.95178,4.92296 z" />
      <path
         id="path1138"
         style="opacity:0.997;fill:#04b6de;fill-opacity:1;stroke:none;stroke-width:0.217372;stroke-opacity:1"
         d="m 125.99803,113.88197 a 4.9373887,4.9373887 0 0 1 -4.92297,4.95178 4.9373887,4.9373887 0 0 1 -4.95177,-4.92296 4.9373887,4.9373887 0 0 1 4.92296,-4.95178 4.9373887,4.9373887 0 0 1 4.95178,4.92296 z" />
      <path
         id="path1140"
         style="opacity:0.997;fill:#11afdd;fill-opacity:1;stroke:none;stroke-width:0.217372;stroke-opacity:1"
         d="m 116.16536,124.89223 a 4.9373887,4.9373887 0 0 1 -4.92297,4.95178 4.9373887,4.9373887 0 0 1 -4.95177,-4.92296 4.9373887,4.9373887 0 0 1 4.92296,-4.95177 4.9373887,4.9373887 0 0 1 4.95178,4.92295 z" />
      <path
         id="path1142"
         style="opacity:0.997;fill:#1fa7dd;fill-opacity:1;stroke:none;stroke-width:0.217372;stroke-opacity:1"
         d="m 106.5169,135.25051 a 4.9373887,4.9373887 0 0 1 -4.92296,4.95178 4.9373887,4.9373887 0 0 1 -4.951769,-4.92297 4.9373887,4.9373887 0 0 1 4.922949,-4.95177 4.9373887,4.9373887 0 0 1 4.95178,4.92296 z" />
      <path
         id="path1144"
         style="opacity:0.997;fill:#2da0dc;fill-opacity:1;stroke:none;stroke-width:0.217372;stroke-opacity:1"
         d="m 96.029259,145.05285 a 4.9373887,4.9373887 0 0 1 -4.922964,4.95178 4.9373887,4.9373887 0 0 1 -4.951771,-4.92296 4.9373887,4.9373887 0 0 1 4.922956,-4.95178 4.9373887,4.9373887 0 0 1 4.951779,4.92296 z" />
      <path
         id="path1146"
         style="opacity:0.997;fill:#4194d7;fill-opacity:1;stroke:none;stroke-width:0.217372;stroke-opacity:1"
         d="m 85.913594,154.76105 a 4.9373887,4.9373887 0 0 1 -4.922964,4.95178 4.9373887,4.9373887 0 0 1 -4.951771,-4.92297 4.9373887,4.9373887 0 0 1 4.922956,-4.95178 4.9373887,4.9373887 0 0 1 4.951779,4.92297 z" />
      <path
         id="path1148"
         style="opacity:0.997;fill:#7478c3;fill-opacity:1;stroke:none;stroke-width:0.217372;stroke-opacity:1"
         d="m 75.327727,162.79545 a 4.9373887,4.9373887 0 0 1 -4.922971,4.95178 4.9373887,4.9373887 0 0 1 -4.951768,-4.92296 4.9373887,4.9373887 0 0 1 4.922953,-4.95178 4.9373887,4.9373887 0 0 1 4.951786,4.92296 z" />
      <path
         id="path1150"
         style="opacity:0.997;fill:#8c6cb8;fill-opacity:1;stroke:none;stroke-width:0.217372;stroke-opacity:1"
         d="m 63.146743,166.36744 a 4.9373887,4.9373887 0 0 1 -4.922965,4.95177 4.9373887,4.9373887 0 0 1 -4.951771,-4.92296 4.9373887,4.9373887 0 0 1 4.922956,-4.95178 4.9373887,4.9373887 0 0 1 4.95178,4.92297 z" />
      <path
         id="path1152"
         style="opacity:0.997;fill:#a765ae;fill-opacity:1;stroke:none;stroke-width:0.217372;stroke-opacity:1"
         d="m 50.112984,164.73031 a 4.9373887,4.9373887 0 0 1 -4.922966,4.95178 4.9373887,4.9373887 0 0 1 -4.95177,-4.92296 4.9373887,4.9373887 0 0 1 4.922955,-4.95178 4.9373887,4.9373887 0 0 1 4.951781,4.92296 z" />
      <path
         id="path1154"
         style="opacity:0.997;fill:#b664ac;fill-opacity:1;stroke:none;stroke-width:0.217372;stroke-opacity:1"
         d="m 39.017804,157.68981 a 4.9373887,4.9373887 0 0 1 -4.922965,4.95178 4.9373887,4.9373887 0 0 1 -4.951771,-4.92296 4.9373887,4.9373887 0 0 1 4.922957,-4.95178 4.9373887,4.9373887 0 0 1 4.951779,4.92296 z" />
      <path
         id="path1156"
         style="opacity:0.997;fill:#c565a9;fill-opacity:1;stroke:none;stroke-width:0.217372;stroke-opacity:1"
         d="m 32.935284,146.26067 a 4.9373887,4.9373887 0 0 1 -4.922966,4.95178 4.9373887,4.9373887 0 0 1 -4.951771,-4.92297 4.9373887,4.9373887 0 0 1 4.922957,-4.95178 4.9373887,4.9373887 0 0 1 4.95178,4.92297 z" />
      <path
         id="path1158"
         style="opacity:0.997;fill:#d666a6;fill-opacity:1;stroke:none;stroke-width:0.217372;stroke-opacity:1"
         d="m 31.037084,133.60948 a 4.9373887,4.9373887 0 0 1 -4.922965,4.95178 4.9373887,4.9373887 0 0 1 -4.951771,-4.92296 4.9373887,4.9373887 0 0 1 4.922956,-4.95178 4.9373887,4.9373887 0 0 1 4.95178,4.92296 z" />
      <path
         id="path1160"
         style="opacity:0.997;fill:#e267a4;fill-opacity:1;stroke:none;stroke-width:0.217372;stroke-opacity:1"
         d="m 33.978179,120.94417 a 4.9373887,4.9373887 0 0 1 -4.922965,4.95178 4.9373887,4.9373887 0 0 1 -4.951772,-4.92296 4.9373887,4.9373887 0 0 1 4.922957,-4.95178 4.9373887,4.9373887 0 0 1 4.95178,4.92296 z" />
      <path
         id="path1162"
         style="opacity:0.997;fill:#e768a3;fill-opacity:1;stroke:none;stroke-width:0.217372;stroke-opacity:1"
         d="m 42.235185,111.74407 a 4.9373887,4.9373887 0 0 1 -4.922966,4.95178 4.9373887,4.9373887 0 0 1 -4.951771,-4.92297 4.9373887,4.9373887 0 0 1 4.922956,-4.95177 4.9373887,4.9373887 0 0 1 4.951781,4.92296 z" />
      <path
         id="path1164"
         style="opacity:0.997;fill:#ed6d96;fill-opacity:1;stroke:none;stroke-width:0.217372;stroke-opacity:1"
         d="m 55.060549,105.75054 a 4.9373887,4.9373887 0 0 1 -4.922966,4.95177 4.9373887,4.9373887 0 0 1 -4.951771,-4.92296 4.9373887,4.9373887 0 0 1 4.922956,-4.95177 4.9373887,4.9373887 0 0 1 4.951781,4.92296 z" />
      <path
         id="path1166"
         style="opacity:0.997;fill:#f0787d;fill-opacity:1;stroke:none;stroke-width:0.217372;stroke-opacity:1"
         d="m 70.227702,104.96177 a 4.9373887,4.9373887 0 0 1 -4.922963,4.95177 4.9373887,4.9373887 0 0 1 -4.95177,-4.92296 4.9373887,4.9373887 0 0 1 4.922956,-4.95178 4.9373887,4.9373887 0 0 1 4.951777,4.92297 z" />
      <path
         id="path1168"
         style="opacity:0.997;fill:#f18169;fill-opacity:1;stroke:none;stroke-width:0.217372;stroke-opacity:1"
         d="m 82.624143,111.44008 a 4.9373887,4.9373887 0 0 1 -4.922963,4.95178 4.9373887,4.9373887 0 0 1 -4.951771,-4.92296 4.9373887,4.9373887 0 0 1 4.922956,-4.95178 4.9373887,4.9373887 0 0 1 4.951778,4.92296 z" />
      <path
         id="path1170"
         style="opacity:0.997;fill:#f2895e;fill-opacity:1;stroke:none;stroke-width:0.217372;stroke-opacity:1"
         d="m 92.332337,121.55575 a 4.9373887,4.9373887 0 0 1 -4.922964,4.95177 4.9373887,4.9373887 0 0 1 -4.95177,-4.92296 4.9373887,4.9373887 0 0 1 4.922956,-4.95177 4.9373887,4.9373887 0 0 1 4.951778,4.92296 z" />
      <path
         id="path1172"
         style="opacity:0.997;fill:#f69e46;fill-opacity:1;stroke:none;stroke-width:0.217372;stroke-opacity:1"
         d="m 118.55565,146.32736 a 4.9373887,4.9373887 0 0 1 -4.92296,4.95177 4.9373887,4.9373887 0 0 1 -4.95177,-4.92296 4.9373887,4.9373887 0 0 1 4.92295,-4.95177 4.9373887,4.9373887 0 0 1 4.95178,4.92296 z" />
      <path
         id="path1174"
         style="opacity:0.997;fill:#f7a83d;fill-opacity:1;stroke:none;stroke-width:0.217372;stroke-opacity:1"
         d="m 128.26167,155.69851 a 4.9373887,4.9373887 0 0 1 -4.92297,4.95178 4.9373887,4.9373887 0 0 1 -4.95177,-4.92296 4.9373887,4.9373887 0 0 1 4.92296,-4.95178 4.9373887,4.9373887 0 0 1 4.95178,4.92296 z" />
      <path
         id="path1176"
         style="opacity:0.997;fill:#f8b338;fill-opacity:1;stroke:none;stroke-width:0.217372;stroke-opacity:1"
         d="m 138.33559,163.57956 a 4.9373887,4.9373887 0 0 1 -4.92296,4.95179 4.9373887,4.9373887 0 0 1 -4.95178,-4.92297 4.9373887,4.9373887 0 0 1 4.92296,-4.95177 4.9373887,4.9373887 0 0 1 4.95178,4.92295 z" />
      <path
         id="path1178"
         style="opacity:0.997;fill:#efc236;fill-opacity:1;stroke:none;stroke-width:0.217372;stroke-opacity:1"
         d="m 151.65261,166.61183 a 4.9373887,4.9373887 0 0 1 -4.92296,4.95178 4.9373887,4.9373887 0 0 1 -4.95178,-4.92297 4.9373887,4.9373887 0 0 1 4.92296,-4.95177 4.9373887,4.9373887 0 0 1 4.95178,4.92296 z" />
      <path
         id="path1180"
         style="opacity:0.997;fill:#d3c643;fill-opacity:1;stroke:none;stroke-width:0.217372;stroke-opacity:1"
         d="m 164.57783,162.9446 a 4.9373887,4.9373887 0 0 1 -4.92297,4.95178 4.9373887,4.9373887 0 0 1 -4.95177,-4.92296 4.9373887,4.9373887 0 0 1 4.92296,-4.95177 4.9373887,4.9373887 0 0 1 4.95178,4.92295 z" />
      <path
         id="path1182"
         style="opacity:0.997;fill:#9cc362;fill-opacity:1;stroke:none;stroke-width:0.217372;stroke-opacity:1"
         d="m 175.34575,153.5137 a 4.9373887,4.9373887 0 0 1 -4.92297,4.95178 4.9373887,4.9373887 0 0 1 -4.95177,-4.92296 4.9373887,4.9373887 0 0 1 4.92296,-4.95177 4.9373887,4.9373887 0 0 1 4.95178,4.92295 z" />
    </g>
  </g>
</svg>
